<svg id="Laag_1" data-name="Laag 1" xmlns="http://www.w3.org/2000/svg" viewBox="0 0 2395.05 1236.49"><defs><style>.cls-1,.cls-2{fill:#9a8d8d;}.cls-1{opacity:0.27;}.cls-10,.cls-3{font-size:73.28px;}.cls-10,.cls-3,.cls-6{fill:#fff;font-family:MyriadPro-Regular, Myriad Pro;}.cls-4{letter-spacing:0em;}.cls-5{letter-spacing:-0.01em;}.cls-6{font-size:45.8px;}.cls-7{letter-spacing:-0.03em;}.cls-8{letter-spacing:0em;}.cls-9{letter-spacing:0em;}.cls-10{letter-spacing:0em;}.cls-11{letter-spacing:0em;}.cls-12{letter-spacing:0em;}.cls-13{letter-spacing:0em;}.cls-14{letter-spacing:0.01em;}.cls-15{letter-spacing:-0.02em;}.cls-16{letter-spacing:-0.01em;}.cls-17{letter-spacing:0.02em;}.cls-18{letter-spacing:-0.01em;}.cls-19{letter-spacing:-0.05em;}.cls-20{letter-spacing:-0.07em;}.cls-21{letter-spacing:0em;}.cls-22{letter-spacing:-0.07em;}.cls-23{letter-spacing:0em;}.cls-24{letter-spacing:-0.01em;}.cls-25{letter-spacing:-0.01em;}.cls-26{letter-spacing:0em;}.cls-27{letter-spacing:-0.01em;}</style></defs><title>Tekengebied 2</title><rect class="cls-1" x="1647.36" y="129.51" width="582.45" height="442.13"/><rect class="cls-1" x="1647.36" y="676.65" width="582.45" height="442.13"/><rect class="cls-1" x="153.74" y="129.51" width="582.45" height="442.13"/><rect class="cls-1" x="869.63" y="676.65" width="582.45" height="442.13"/><rect class="cls-1" x="153.74" y="676.65" width="582.45" height="442.13"/><rect class="cls-1" x="877.95" y="129.51" width="582.45" height="442.13"/><rect class="cls-2" x="1637.47" y="116.62" width="582.45" height="442.13"/><text class="cls-3" transform="translate(1817.97 228.08)"><tspan class="cls-4">R</tspan><tspan x="39.72" y="0">ou</tspan><tspan class="cls-5" x="120.33" y="0">t</tspan><tspan x="144.14" y="0">er</tspan></text><text class="cls-6" transform="translate(1690.23 402.84)">main<tspan class="cls-7" x="96.41" y="0">P</tspan><tspan x="119.58" y="0">age()</tspan></text><text class="cls-6" transform="translate(1690.23 325.55)"><tspan class="cls-8">R</tspan><tspan x="24.82" y="0">outie()</tspan></text><text class="cls-6" transform="translate(1690.23 480.12)">detail<tspan class="cls-7" x="107.54" y="0">P</tspan><tspan x="130.71" y="0">age()</tspan></text><rect class="cls-2" x="1637.47" y="663.75" width="582.45" height="442.13"/><text class="cls-3" transform="translate(1869.7 775.22)">API</text><text class="cls-6" transform="translate(1690.23 872.69)">getD<tspan class="cls-9" x="94.21" y="0">a</tspan><tspan x="116.1" y="0">ta()</tspan></text><text class="cls-6" transform="translate(1690.23 949.98)">parse()</text><rect class="cls-2" x="143.85" y="116.62" width="582.45" height="442.13"/><text class="cls-10" transform="translate(362.75 228.08)">A<tspan class="cls-11" x="44.63" y="0">pp</tspan></text><text class="cls-6" transform="translate(196.61 325.55)">init()</text><rect class="cls-2" x="859.74" y="663.75" width="582.45" height="442.13"/><text class="cls-3" transform="translate(936.92 775.22)"><tspan class="cls-5">c</tspan><tspan x="32.39" y="0">o</tspan><tspan class="cls-12" x="72.62" y="0">n</tspan><tspan class="cls-5" x="113" y="0">t</tspan><tspan x="136.81" y="0">e</tspan><tspan class="cls-12" x="173.53" y="0">n</tspan><tspan x="213.9" y="0">t</tspan><tspan class="cls-13" x="238.16" y="0">S</tspan><tspan class="cls-14" x="274.07" y="0">t</tspan><tspan x="298.98" y="0">yler</tspan></text><text class="cls-6" transform="translate(912.5 872.69)">slim<tspan class="cls-15" x="77.86" y="0">V</tspan><tspan x="102.68" y="0">iew()</tspan></text><text class="cls-6" transform="translate(912.5 949.98)">wide<tspan class="cls-15" x="93.2" y="0">V</tspan><tspan x="118.03" y="0">iew()</tspan></text><text class="cls-6" transform="translate(912.5 1026.32)">disabledLinks()</text><rect class="cls-2" x="143.85" y="663.75" width="582.45" height="442.13"/><text class="cls-3" transform="translate(321.2 775.22)"><tspan class="cls-16">L</tspan><tspan x="33.56" y="0">oader</tspan></text><text class="cls-6" transform="translate(196.61 872.69)">sta<tspan class="cls-17" x="55.37" y="0">r</tspan><tspan x="71.45" y="0">t()</tspan></text><text class="cls-6" transform="translate(196.61 949.98)">s<tspan class="cls-18" x="18.14" y="0">t</tspan><tspan x="33.02" y="0">op()</tspan></text><rect class="cls-2" x="868.06" y="116.62" width="582.45" height="442.13"/><text class="cls-3" transform="translate(1041.41 228.08)"><tspan class="cls-4">R</tspan><tspan x="39.72" y="0">ender</tspan></text><text class="cls-6" transform="translate(920.82 325.55)">mai<tspan class="cls-19" x="70.99" y="0">n</tspan><tspan class="cls-20" x="94.12" y="0">T</tspan><tspan x="113.63" y="0">epmpl</tspan><tspan class="cls-21" x="237.7" y="0">a</tspan><tspan class="cls-18" x="259.59" y="0">t</tspan><tspan x="274.48" y="0">e()</tspan></text><text class="cls-6" transform="translate(920.82 402.84)">detail<tspan class="cls-22" x="107.54" y="0">T</tspan><tspan x="127.05" y="0">epmpl</tspan><tspan class="cls-23" x="251.12" y="0">a</tspan><tspan class="cls-24" x="273.01" y="0">t</tspan><tspan x="287.9" y="0">e()</tspan></text><text class="cls-6" transform="translate(920.82 480.12)">e<tspan class="cls-8" x="22.95" y="0">r</tspan><tspan class="cls-25" x="38.11" y="0">r</tspan><tspan class="cls-26" x="52.62" y="0">o</tspan><tspan class="cls-27" x="77.77" y="0">r</tspan><tspan class="cls-22" x="92.1" y="0">T</tspan><tspan x="111.61" y="0">epmpl</tspan><tspan class="cls-21" x="235.69" y="0">a</tspan><tspan class="cls-18" x="257.58" y="0">t</tspan><tspan x="272.46" y="0">e()</tspan></text></svg>