<svg id="Laag_1" data-name="Laag 1" xmlns="http://www.w3.org/2000/svg" viewBox="0 0 2395.05 1236.49"><defs><style>.cls-1,.cls-2{fill:#9a8d8d;}.cls-1{opacity:0.27;}.cls-3{font-size:73.28px;}.cls-3,.cls-4{fill:#fff;font-family:Avenir-Book, Avenir;}.cls-4{font-size:45.8px;}.cls-5{letter-spacing:0.01em;}.cls-6{letter-spacing:-0.11em;}.cls-7{letter-spacing:-0.02em;}</style></defs><title>Tekengebied 2</title><rect class="cls-1" x="1647.36" y="129.51" width="582.45" height="442.13"/><rect class="cls-1" x="1647.36" y="676.65" width="582.45" height="442.13"/><rect class="cls-1" x="153.74" y="129.51" width="582.45" height="442.13"/><rect class="cls-1" x="869.63" y="676.65" width="582.45" height="442.13"/><rect class="cls-1" x="153.74" y="676.65" width="582.45" height="442.13"/><rect class="cls-1" x="877.95" y="129.51" width="582.45" height="442.13"/><rect class="cls-2" x="1637.47" y="116.62" width="582.45" height="442.13"/><text class="cls-3" transform="translate(1811.85 231.45)">Router</text><text class="cls-4" transform="translate(1690.23 404.95)">mainPage()</text><text class="cls-4" transform="translate(1690.23 327.66)">Routie()</text><text class="cls-4" transform="translate(1690.23 482.23)">detailPage()</text><rect class="cls-2" x="1637.47" y="663.75" width="582.45" height="442.13"/><text class="cls-3" transform="translate(1864.54 778.59)">API</text><text class="cls-4" transform="translate(1690.23 874.8)">getData()</text><text class="cls-4" transform="translate(1690.23 952.08)">parse()</text><rect class="cls-2" x="143.85" y="116.62" width="582.45" height="442.13"/><text class="cls-3" transform="translate(356.85 231.45)">App</text><text class="cls-4" transform="translate(196.61 327.66)">init()</text><rect class="cls-2" x="859.74" y="663.75" width="582.45" height="442.13"/><text class="cls-3" transform="translate(926.29 778.59)">contentStyler</text><text class="cls-4" transform="translate(912.5 874.8)">slim<tspan class="cls-5" x="80.52" y="0">V</tspan><tspan x="108.77" y="0">iew()</tspan></text><text class="cls-4" transform="translate(912.5 952.08)">wide<tspan class="cls-5" x="97.51" y="0">V</tspan><tspan x="125.77" y="0">iew()</tspan></text><text class="cls-4" transform="translate(912.5 1028.42)">disabledLinks()</text><rect class="cls-2" x="143.85" y="663.75" width="582.45" height="442.13"/><text class="cls-3" transform="translate(312.77 778.59)">Loader</text><text class="cls-4" transform="translate(196.61 874.8)">start()</text><text class="cls-4" transform="translate(196.61 952.08)">stop()</text><rect class="cls-2" x="868.06" y="116.62" width="582.45" height="442.13"/><text class="cls-3" transform="translate(1033.57 231.45)">Render</text><text class="cls-4" transform="translate(920.82 327.66)">main<tspan class="cls-6" x="99.25" y="0">T</tspan><tspan x="120.45" y="0">epmplate()</tspan></text><text class="cls-4" transform="translate(920.82 404.95)">detail<tspan class="cls-6" x="114.41" y="0">T</tspan><tspan x="135.61" y="0">epmplate()</tspan></text><text class="cls-4" transform="translate(920.82 482.23)">er<tspan class="cls-7" x="40.67" y="0">r</tspan><tspan x="55.05" y="0">or</tspan><tspan class="cls-6" x="97.42" y="0">T</tspan><tspan x="118.62" y="0">epmplate()</tspan></text></svg>