<svg id="Laag_1" data-name="Laag 1" xmlns="http://www.w3.org/2000/svg" viewBox="0 0 4614.91 1859.79"><defs><style>.cls-1{fill:#e9f5fe;}.cls-2{fill:none;stroke:#1d1d1b;stroke-width:2px;}.cls-2,.cls-3,.cls-4{stroke-miterlimit:10;}.cls-3{fill:#ddd;}.cls-3,.cls-4{stroke:#9a8d8d;}.cls-4{fill:#fff;}.cls-5{font-size:73.28px;}.cls-5,.cls-6{fill:#1d1d1b;font-family:Avenir-Book, Avenir;}.cls-6{font-size:45.8px;}.cls-7{letter-spacing:-0.11em;}.cls-8{letter-spacing:-0.02em;}.cls-9{letter-spacing:0.01em;}</style></defs><title>Tekengebied 2</title><rect class="cls-1" width="4614.91" height="1859.79"/><line class="cls-2" x1="1071.99" y1="669.48" x2="1071.99" y2="952.99"/><line class="cls-2" x1="1242.44" y1="695.12" x2="1242.44" y2="815.7"/><rect class="cls-3" x="951.22" y="581.97" width="582.45" height="109.93"/><rect class="cls-3" x="1630.27" y="581.97" width="582.45" height="109.93"/><rect class="cls-3" x="951.22" y="751.69" width="582.45" height="109.93"/><rect class="cls-3" x="951.22" y="901.09" width="582.45" height="109.93"/><rect class="cls-4" x="951.22" y="385.94" width="582.45" height="157.84"/><rect class="cls-4" x="1638.58" y="386.97" width="582.45" height="156.81"/><text class="cls-5" transform="translate(1125.6 500.78)">Router</text><text class="cls-6" transform="translate(1003.98 824.27)">mainPage()</text><text class="cls-6" transform="translate(1003.98 651.99)">Routie()</text><rect class="cls-3" x="234.75" y="581.97" width="582.45" height="109.93"/><rect class="cls-4" x="234.75" y="385.94" width="582.45" height="157.84"/><text class="cls-5" transform="translate(447.74 500.78)">App</text><text class="cls-6" transform="translate(287.51 651.99)">init()</text><text class="cls-6" transform="translate(1003.98 961.55)">detailPage()</text><text class="cls-5" transform="translate(1807.5 501.81)">Loader</text><text class="cls-6" transform="translate(1691.34 648.02)">start()</text><rect class="cls-3" x="2338.9" y="581.97" width="582.45" height="109.93"/><rect class="cls-3" x="2338.9" y="735.65" width="582.45" height="109.93"/><rect class="cls-4" x="2347.22" y="386.97" width="582.45" height="156.81"/><text class="cls-5" transform="translate(2574.29 501.81)">API</text><text class="cls-6" transform="translate(2399.98 648.02)">getData()</text><text class="cls-6" transform="translate(2399.98 800.3)">parse()</text><rect class="cls-3" x="3042.19" y="581.97" width="582.45" height="109.93"/><rect class="cls-3" x="3042.19" y="735.65" width="582.45" height="109.93"/><rect class="cls-4" x="3050.5" y="386.97" width="582.45" height="156.81"/><text class="cls-5" transform="translate(3216.02 501.81)">Render</text><text class="cls-6" transform="translate(3103.27 648.02)">Main<tspan class="cls-7" x="100.99" y="0">T</tspan><tspan x="122.19" y="0">emplate()</tspan></text><text class="cls-6" transform="translate(3103.27 800.3)">detail<tspan class="cls-7" x="114.41" y="0">T</tspan><tspan x="135.61" y="0">epmplate()</tspan></text><rect class="cls-3" x="3042.19" y="889.32" width="582.45" height="109.93"/><text class="cls-6" transform="translate(3103.27 953.98)">er<tspan class="cls-8" x="40.67" y="0">r</tspan><tspan x="55.05" y="0">or</tspan><tspan class="cls-7" x="97.42" y="0">T</tspan><tspan x="118.62" y="0">epmplate()</tspan></text><rect class="cls-3" x="3749.63" y="985.62" width="582.45" height="109.93"/><rect class="cls-3" x="3749.63" y="1139.29" width="582.45" height="109.93"/><rect class="cls-4" x="3757.95" y="790.61" width="582.45" height="156.81"/><text class="cls-5" transform="translate(3824.5 905.45)">contentStyler</text><text class="cls-6" transform="translate(3810.71 1051.66)">slim<tspan class="cls-9" x="80.52" y="0">V</tspan><tspan x="108.77" y="0">iew()</tspan></text><text class="cls-6" transform="translate(3810.71 1203.94)">wide<tspan class="cls-9" x="97.51" y="0">V</tspan><tspan x="125.77" y="0">iew()</tspan></text><rect class="cls-3" x="3749.63" y="1292.96" width="582.45" height="109.93"/><text class="cls-6" transform="translate(3810.71 1357.62)">disabledLinks()</text><line class="cls-2" x1="2232.03" y1="464.86" x2="2325.9" y2="464.86"/><line class="cls-2" x1="1533.66" y1="464.86" x2="1627.53" y2="464.86"/><line class="cls-2" x1="842.71" y1="464.86" x2="936.58" y2="464.86"/><line class="cls-2" x1="2938.99" y1="464.86" x2="3032.86" y2="464.86"/><rect class="cls-3" x="3753.79" y="581.97" width="582.45" height="109.93"/><rect class="cls-4" x="3762.11" y="386.97" width="582.45" height="156.81"/><text class="cls-5" transform="translate(3931.03 501.81)">Loader</text><text class="cls-6" transform="translate(3814.87 648.02)">stop()</text><line class="cls-2" x1="3653.94" y1="464.86" x2="3747.81" y2="464.86"/><path class="cls-2" d="M3653.94,511.29h46.94s30.87-8.29,22.76,125.65S3725,889.32,3725,889.32"/></svg>