<svg id="Laag_1" data-name="Laag 1" xmlns="http://www.w3.org/2000/svg" viewBox="0 0 3167.83 3933.41"><defs><style>.cls-1{fill:#e9f5fe;}.cls-2{fill:none;}.cls-18,.cls-2{stroke:#1d1d1b;stroke-width:3px;}.cls-18,.cls-2,.cls-3,.cls-4{stroke-miterlimit:10;}.cls-18,.cls-3{fill:#ddd;}.cls-3,.cls-4{stroke:#9a8d8d;}.cls-11,.cls-13,.cls-19,.cls-4{fill:#fff;}.cls-19,.cls-5{font-size:73.28px;}.cls-17,.cls-5,.cls-6{fill:#1d1d1b;}.cls-19,.cls-5,.cls-6{font-family:Avenir-Book, Avenir;}.cls-6{font-size:45.8px;}.cls-7{letter-spacing:-0.11em;}.cls-8{letter-spacing:-0.02em;}.cls-9{letter-spacing:0.01em;}.cls-10{fill:#f6a13b;}.cls-11{font-size:61.07px;}.cls-11,.cls-13,.cls-17{font-family:MyriadPro-Regular, Myriad Pro;}.cls-12{letter-spacing:-0.01em;}.cls-13,.cls-17{font-size:59.4px;}.cls-14{letter-spacing:0em;}.cls-15{letter-spacing:-0.01em;}.cls-16{letter-spacing:-0.01em;}</style></defs><title>Tekengebied 3</title><rect class="cls-1" width="3167.83" height="3933.41"/><line class="cls-2" x1="781.08" y1="357.76" x2="2429.34" y2="357.76"/><line class="cls-2" x1="1014.6" y1="2719.36" x2="2662.86" y2="2719.36"/><line class="cls-2" x1="992.5" y1="1029.57" x2="2346.32" y2="1029.57"/><line class="cls-2" x1="1906.63" y1="405.87" x2="1906.63" y2="871.58"/><line class="cls-2" x1="2524.19" y1="428.93" x2="2524.19" y2="894.63"/><rect class="cls-3" x="1618.97" y="450.65" width="582.45" height="109.93"/><rect class="cls-3" x="1618.97" y="620.37" width="582.45" height="109.93"/><rect class="cls-4" x="1618.97" y="261.03" width="582.45" height="157.84"/><text class="cls-5" transform="translate(1789.79 369.45)">Router</text><text class="cls-6" transform="translate(1668.17 692.95)">mainPage()</text><text class="cls-6" transform="translate(1668.17 520.66)">Routie()</text><rect class="cls-3" x="2284.01" y="1116.07" width="582.45" height="109.93"/><rect class="cls-3" x="2284.01" y="1285.79" width="582.45" height="109.93"/><rect class="cls-4" x="2284.01" y="920.03" width="582.45" height="157.84"/><text class="cls-5" transform="translate(2459.57 1034.87)">Router</text><text class="cls-6" transform="translate(2337.95 1358.36)">detailPage()</text><text class="cls-6" transform="translate(2337.95 1186.08)">Routie()</text><rect class="cls-3" x="939.74" y="457.07" width="582.45" height="109.93"/><rect class="cls-4" x="939.74" y="261.03" width="582.45" height="157.84"/><text class="cls-5" transform="translate(1152.74 375.87)">App</text><text class="cls-6" transform="translate(992.5 527.08)">init()</text><rect class="cls-3" x="1618.97" y="1129.78" width="582.45" height="109.93"/><rect class="cls-4" x="1618.97" y="934.78" width="582.45" height="156.81"/><text class="cls-5" transform="translate(1792.65 1049.61)">Loader</text><text class="cls-6" transform="translate(1676.49 1195.82)">start()</text><rect class="cls-3" x="968.39" y="1136.73" width="582.45" height="109.93"/><rect class="cls-3" x="968.39" y="1290.41" width="582.45" height="109.93"/><rect class="cls-4" x="968.39" y="941.73" width="582.45" height="156.81"/><text class="cls-5" transform="translate(1203.77 1056.57)">API</text><text class="cls-6" transform="translate(1029.47 1202.78)">getData()</text><text class="cls-6" transform="translate(1029.47 1355.06)">parse()</text><rect class="cls-3" x="968.39" y="2843.71" width="582.45" height="109.93"/><rect class="cls-3" x="968.39" y="2997.39" width="582.45" height="109.93"/><rect class="cls-4" x="968.39" y="2648.71" width="582.45" height="156.81"/><text class="cls-6" transform="translate(1025.31 2909.76)">Main<tspan class="cls-7" x="100.99" y="0">T</tspan><tspan x="122.19" y="0">emplate()</tspan></text><text class="cls-6" transform="translate(1025.31 3062.04)">detail<tspan class="cls-7" x="114.41" y="0">T</tspan><tspan x="135.61" y="0">emplate()</tspan></text><rect class="cls-4" x="238.63" y="2172.71" width="582.45" height="156.81"/><text class="cls-5" transform="translate(398.33 3370.73)">Legend</text><rect class="cls-3" x="231.31" y="2360.78" width="582.45" height="109.93"/><rect class="cls-4" x="290.29" y="3575.48" width="582.45" height="156.81"/><rect class="cls-3" x="1074.47" y="3598.92" width="582.45" height="109.93"/><text class="cls-6" transform="translate(292.39 2425.43)">er<tspan class="cls-8" x="40.67" y="0">r</tspan><tspan x="55.05" y="0">or</tspan><tspan class="cls-7" x="97.42" y="0">T</tspan><tspan x="118.62" y="0">empplate()</tspan></text><rect class="cls-3" x="2284.01" y="2842.51" width="582.45" height="109.93"/><rect class="cls-3" x="2284.01" y="2996.18" width="582.45" height="109.93"/><rect class="cls-4" x="2284.01" y="2647.5" width="582.45" height="156.81"/><text class="cls-5" transform="translate(2355.9 2762.34)">contentStyler</text><text class="cls-6" transform="translate(2342.11 2908.55)">slim<tspan class="cls-9" x="80.52" y="0">V</tspan><tspan x="108.77" y="0">iew()</tspan></text><text class="cls-6" transform="translate(2342.11 3060.83)">wide<tspan class="cls-9" x="97.51" y="0">V</tspan><tspan x="125.77" y="0">iew()</tspan></text><rect class="cls-3" x="2284.01" y="3149.85" width="582.45" height="109.93"/><text class="cls-6" transform="translate(2342.11 3214.51)">disabledLinks()</text><rect class="cls-3" x="1618.97" y="2842.51" width="582.45" height="109.93"/><rect class="cls-4" x="1618.97" y="2647.5" width="582.45" height="156.81"/><text class="cls-5" transform="translate(1796.8 2762.34)">Loader</text><text class="cls-6" transform="translate(1680.64 2908.55)">stop()</text><rect class="cls-10" x="326.43" y="261.03" width="478" height="213.93" rx="106.96" ry="106.96"/><text class="cls-11" transform="translate(426.3 383.39)"><tspan class="cls-12">L</tspan><tspan x="27.97" y="0">oad page</tspan></text><rect class="cls-10" x="2285.19" y="261.03" width="478" height="213.93" rx="106.96" ry="106.96"/><text class="cls-11" transform="translate(2353.89 395.35)">Hash change</text><rect class="cls-10" x="1150.81" y="2192.69" width="210.24" height="210.24" transform="translate(1992.65 -215.06) rotate(45)"/><rect class="cls-10" x="1924.63" y="3550.84" width="210.24" height="210.24" transform="translate(3179.65 -364.44) rotate(45)"/><text class="cls-13" transform="translate(1189.43 2321.57)">e<tspan class="cls-14" x="29.76" y="0">r</tspan><tspan class="cls-15" x="49.42" y="0">r</tspan><tspan x="68.25" y="0">or?</tspan></text><text class="cls-13" transform="translate(1946.84 3667.2)">Choi<tspan class="cls-16" x="113.93" y="0">c</tspan><tspan x="140.19" y="0">e</tspan></text><text class="cls-17" transform="translate(923.84 2311.02)"><tspan class="cls-15">y</tspan><tspan x="27.38" y="0">es</tspan></text><text class="cls-17" transform="translate(1226.82 2540.78)">no</text><line class="cls-2" x1="1103.71" y1="2297.81" x2="1014.6" y2="2297.81"/><line class="cls-2" x1="908.97" y1="2297.81" x2="832.08" y2="2297.81"/><line class="cls-2" x1="1255.93" y1="2453.96" x2="1255.93" y2="2498.6"/><line class="cls-2" x1="1255.46" y1="1445.94" x2="1255.46" y2="1490.59"/><line class="cls-2" x1="1255.46" y1="2010.05" x2="1255.46" y2="2097.25"/><line class="cls-2" x1="1255.93" y1="2554.78" x2="1255.93" y2="2607.85"/><polygon class="cls-18" points="1883.36 875.87 1929.91 875.87 1906.63 909.24 1883.36 875.87"/><polygon class="cls-18" points="1234.36 2583.14 1280.9 2583.14 1257.63 2616.52 1234.36 2583.14"/><polygon class="cls-18" points="864.33 381.03 864.33 334.49 897.71 357.76 864.33 381.03"/><polygon class="cls-18" points="865.45 2274.54 865.45 2321.09 832.08 2297.81 865.45 2274.54"/><polygon class="cls-18" points="2500.92 865.93 2547.47 865.93 2524.19 899.3 2500.92 865.93"/><line class="cls-2" x1="15.27" y1="3344" x2="356.74" y2="3344"/><line class="cls-2" x1="706.08" y1="3344" x2="3150.88" y2="3344"/><rect class="cls-10" x="1035.91" y="1516.09" width="439.08" height="439.08" rx="219.54" ry="219.54"/><text class="cls-19" transform="translate(1170.87 1653.68)">Rest<tspan x="139.74" y="0">-</tspan><tspan x="-67.16" y="87.94">countries </tspan><tspan x="26.23" y="175.87">API</tspan></text><rect class="cls-10" x="2374.1" y="3434.34" width="439.08" height="439.08" rx="219.54" ry="219.54"/><text class="cls-19" transform="translate(2529.51 3674.67)"><tspan xml:space="preserve"> API</tspan></text><text class="cls-5" transform="translate(405.14 2280.6)">Render</text><text class="cls-5" transform="translate(1144.24 2743.61)">Render</text><text class="cls-5" transform="translate(369.3 3683.4)">Object literal</text><text class="cls-6" transform="translate(1148.08 3673.07)">Function name</text></svg>